<svg xmlns="http://www.w3.org/2000/svg" version="1.0" width="300" height="300" preserveAspectRatio="xMidYMid meet" style=""><rect id="backgroundrect" width="100%" height="100%" x="0" y="0" fill="none" stroke="none"/>
<metadata>
Created by potrace 1.15, written by Peter Selinger 2001-2017
</metadata>

<g class="currentLayer" style=""><title>Layer 1</title><path fill="#fffcc9" fill-opacity="1" stroke="none" stroke-width="1" stroke-dasharray="none" stroke-linejoin="miter" stroke-linecap="butt" stroke-dashoffset="" fill-rule="nonzero" opacity="1" marker-start="" marker-mid="" marker-end="" d="M44.83333,83.83333C44.83333,49.21086 75.64227,17.83333 116.25,17.83333C156.85773,17.83333 184.75,45.46086 187.66667,80.08333C190.58333,114.7058 236.02439,144.83334 112.5,141.50001C-11.02439,138.16668 44.83333,118.4558 44.83333,83.83333z" id="svg_10" class=""/>
<path d="M104.04166816174984,16.24166239798069 c-23.000000342726707,5.700000084936619 -40.100000597536564,16.900000251829624 -51.00000075995922,33.5000004991889 c-8.00000011920929,12.200000181794167 -9.80000014603138,18.100000269711018 -11.500000171363354,37.200000554323196 c-1.3000000193715096,16.20000024139881 -1.5000000223517418,16.900000251829624 -5.4000000804662704,25.100000374019146 c-4.700000070035458,9.600000143051147 -5.200000077486038,15.000000223517418 -2.2000000327825546,21.600000321865082 c3.300000049173832,7.300000108778477 10.400000154972076,10.500000156462193 16.300000242888927,7.300000108778477 c1.1000000163912773,-0.6000000089406967 2.2000000327825546,-0.800000011920929 2.500000037252903,-0.5000000074505807 c0.30000000447034836,0.30000000447034836 10.400000154972076,27.500000409781933 22.40000033378601,60.60000090301037 c14.000000208616257,38.500000573694706 22.800000339746475,61.30000091344118 24.50000036507845,63.60000094771385 c3.7000000551342964,4.700000070035458 9.100000135600567,7.400000110268593 15.300000227987766,7.400000110268593 c8.800000131130219,0 13.100000195205212,-2.7000000402331352 18.100000269711018,-11.500000171363354 c2.9000000432133675,-5.000000074505806 47.000000700354576,-117.10000174492598 47.000000700354576,-119.40000177919865 c0,-0.800000011920929 1.700000025331974,-1.1000000163912773 5.300000078976154,-1.0000000149011612 c7.700000114738941,0.20000000298023224 11.800000175833702,-1.9000000283122063 15.600000232458115,-8.100000120699406 c3.400000050663948,-5.700000084936619 2.8000000417232513,-10.800000160932541 -2.500000037252903,-20.800000309944153 c-3.7000000551342964,-7.000000104308128 -4.400000065565109,-9.300000138580799 -3.9000000581145287,-11.900000177323818 c0.5000000074505807,-2.9000000432133675 -0.4000000059604646,-12.600000187754631 -2.1000000312924385,-21.700000323355198 c-0.9000000134110452,-5.300000078976154 -4.400000065565109,-14.70000021904707 -8.300000123679638,-22.500000335276127 c-6.000000089406967,-11.700000174343586 -15.70000023394823,-20.800000309944153 -32.600000485777855,-30.600000455975533 c-2.7000000402331352,-1.600000023841858 -5.100000075995922,-2.8000000417232513 -5.300000078976154,-2.600000038743019 c-0.20000000298023224,0.10000000149011612 -1.3000000193715096,-0.4000000059604646 -2.500000037252903,-1.2000000178813934 c-1.3000000193715096,-0.800000011920929 -6.100000090897083,-2.400000035762787 -10.800000160932541,-3.6000000536441807 c-8.900000132620335,-2.2000000327825546 -22.000000327825546,-2.7000000402331352 -28.90000043064356,-0.9000000134110452 zm30.000000447034836,8.300000123679638 c14.100000210106373,4.300000064074993 28.10000041872263,13.800000205636024 37.30000055581331,25.00000037252903 c8.800000131130219,10.700000159442425 16.700000248849392,29.700000442564487 18.30000027269125,43.60000064969063 c1.0000000149011612,9.300000138580799 -0.9000000134110452,9.00000013411045 -11.900000177323818,-1.8000000268220901 c-8.400000125169754,-8.300000123679638 -13.000000193715096,-11.400000169873238 -14.400000214576721,-9.900000147521496 c-1.1000000163912773,1.1000000163912773 3.300000049173832,6.600000098347664 10.200000151991844,12.600000187754631 c13.100000195205212,11.60000017285347 18.500000275671482,19.80000029504299 18.700000278651714,28.800000429153442 c0.20000000298023224,9.400000140070915 -3.400000050663948,11.60000017285347 -14.400000214576721,8.700000129640102 c-7.900000117719173,-2.0000000298023224 -9.500000141561031,-1.4000000208616257 -14.500000216066837,5.200000077486038 c-1.5000000223517418,2.1000000312924385 -3.200000047683716,4.100000061094761 -3.8000000566244125,4.500000067055225 c-2.3000000342726707,1.700000025331974 -6.400000095367432,0.6000000089406967 -10.800000160932541,-2.8000000417232513 c-4.300000064074993,-3.400000050663948 -5.000000074505806,-3.6000000536441807 -8.900000132620335,-2.9000000432133675 c-5.4000000804662704,0.9000000134110452 -8.900000132620335,0.9000000134110452 -15.800000235438347,0 c-5.100000075995922,-0.700000010430813 -6.200000092387199,-0.4000000059604646 -11.800000175833702,2.400000035762787 c-7.800000116229057,3.9000000581145287 -11.400000169873238,3.9000000581145287 -17.200000256299973,0.10000000149011612 c-4.400000065565109,-3.0000000447034836 -4.6000000685453415,-3.1000000461935997 -13.600000202655792,-2.400000035762787 c-10.100000150501728,0.700000010430813 -10.900000162422657,0.30000000447034836 -14.600000217556953,-6.400000095367432 c-2.3000000342726707,-4.300000064074993 -4.700000070035458,-4.100000061094761 -10.30000015348196,0.800000011920929 c-8.00000011920929,6.900000102818012 -15.100000225007534,4.500000067055225 -16.20000024139881,-5.4000000804662704 c-1.2000000178813934,-9.900000147521496 6.000000089406967,-13.300000198185444 25.300000376999378,-12.10000018030405 c7.500000111758709,0.5000000074505807 11.400000169873238,0.4000000059604646 11.400000169873238,-0.30000000447034836 c0,-1.5000000223517418 -7.500000111758709,-4.200000062584877 -16.00000023841858,-5.800000086426735 c-13.200000196695328,-2.500000037252903 -15.100000225007534,-5.500000081956387 -13.200000196695328,-21.700000323355198 c2.9000000432133675,-24.50000036507845 10.400000154972076,-38.000000566244125 27.10000040382147,-49.20000073313713 c9.00000013411045,-5.900000087916851 21.600000321865082,-11.500000171363354 29.10000043362379,-12.90000019222498 c5.300000078976154,-1.0000000149011612 24.600000366568565,0.30000000447034836 30.000000447034836,1.9000000283122063 zm-55.70000082999468,120.80000180006027 c2.600000038743019,0 5.600000083446503,-0.700000010430813 7.1000001057982445,-1.600000023841858 c3.8000000566244125,-2.500000037252903 5.4000000804662704,-2.1000000312924385 10.400000154972076,2.400000035762787 c4.300000064074993,4.000000059604645 4.6000000685453415,4.100000061094761 9.600000143051147,3.6000000536441807 c4.100000061094761,-0.4000000059604646 5.700000084936619,-0.10000000149011612 7.600000113248825,1.3000000193715096 l2.500000037252903,1.9000000283122063 l-4.300000064074993,4.400000065565109 l-4.400000065565109,4.500000067055225 l-6.500000096857548,-4.000000059604645 c-3.7000000551342964,-2.2000000327825546 -7.500000111758709,-4.90000007301569 -8.600000128149986,-5.900000087916851 c-2.0000000298023224,-1.9000000283122063 -2.1000000312924385,-1.8000000268220901 -4.100000061094761,0.30000000447034836 c-2.0000000298023224,2.2000000327825546 -3.200000047683716,5.300000078976154 -1.600000023841858,4.300000064074993 c0.5000000074505807,-0.30000000447034836 4.100000061094761,1.9000000283122063 8.00000011920929,4.90000007301569 l7.000000104308128,5.500000081956387 l-4.500000067055225,3.500000052154064 c-2.600000038743019,1.9000000283122063 -5.200000077486038,3.300000049173832 -5.900000087916851,3.0000000447034836 c-0.800000011920929,-0.30000000447034836 -1.2000000178813934,0.30000000447034836 -1.0000000149011612,1.8000000268220901 c0.10000000149011612,1.3000000193715096 0.30000000447034836,2.600000038743019 0.30000000447034836,3.0000000447034836 c0.10000000149011612,0.5000000074505807 1.3000000193715096,0.800000011920929 2.8000000417232513,0.800000011920929 c1.700000025331974,0 4.800000071525574,-1.700000025331974 8.400000125169754,-4.500000067055225 l5.800000086426735,-4.500000067055225 l6.500000096857548,4.100000061094761 c3.6000000536441807,2.3000000342726707 6.600000098347664,4.300000064074993 6.600000098347664,4.6000000685453415 c0,0.20000000298023224 -3.0000000447034836,3.8000000566244125 -6.70000009983778,7.900000117719173 c-3.8000000566244125,4.100000061094761 -6.800000101327896,8.00000011920929 -6.800000101327896,8.600000128149986 c0,0.6000000089406967 0.800000011920929,1.600000023841858 1.700000025331974,2.1000000312924385 c1.4000000208616257,0.9000000134110452 3.200000047683716,-0.30000000447034836 10.30000015348196,-7.200000107288361 l8.600000128149986,-8.200000122189522 l8.700000129640102,4.6000000685453415 c4.800000071525574,2.600000038743019 9.100000135600567,5.000000074505806 9.500000141561031,5.500000081956387 c0.800000011920929,0.700000010430813 -18.400000274181366,51.400000765919685 -23.100000344216824,60.8000009059906 c-3.1000000461935997,6.100000090897083 -6.3000000938773155,9.500000141561031 -8.300000123679638,8.700000129640102 c-0.800000011920929,-0.30000000447034836 -2.2000000327825546,-1.700000025331974 -3.200000047683716,-3.0000000447034836 c-1.0000000149011612,-1.4000000208616257 -10.400000154972076,-26.700000397861004 -20.90000031143427,-56.300000838935375 c-21.40000031888485,-60.200000897049904 -20.60000030696392,-57.80000086128712 -19.000000283122063,-56.800000846385956 c1.8000000268220901,1.1000000163912773 1.4000000208616257,-0.4000000059604646 -0.5000000074505807,-2.8000000417232513 c-1.4000000208616257,-1.600000023841858 -1.2000000178813934,-1.600000023841858 0.9000000134110452,0.30000000447034836 c1.9000000283122063,1.700000025331974 3.9000000581145287,2.3000000342726707 7.1000001057982445,2.400000035762787 zm65.50000097602606,-1.5000000223517418 c4.700000070035458,5.000000074505806 4.6000000685453415,5.700000084936619 -1.5000000223517418,11.10000016540289 c-5.600000083446503,5.000000074505806 -5.700000084936619,5.100000075995922 -8.200000122189522,3.400000050663948 c-1.4000000208616257,-0.9000000134110452 -4.100000061094761,-2.600000038743019 -5.800000086426735,-3.7000000551342964 c-1.8000000268220901,-1.2000000178813934 -3.300000049173832,-2.400000035762787 -3.300000049173832,-2.9000000432133675 c0,-2.2000000327825546 4.90000007301569,-7.800000116229057 7.500000111758709,-8.600000128149986 c5.000000074505806,-1.5000000223517418 9.400000140070915,-1.2000000178813934 11.300000168383121,0.700000010430813 zm-15.70000023394823,16.800000250339508 l5.900000087916851,3.6000000536441807 l-4.100000061094761,4.90000007301569 c-2.2000000327825546,2.7000000402331352 -4.300000064074993,4.90000007301569 -4.6000000685453415,4.90000007301569 c-0.5000000074505807,0 -9.80000014603138,-6.400000095367432 -11.800000175833702,-8.200000122189522 c-0.9000000134110452,-0.800000011920929 6.100000090897083,-8.800000131130219 7.800000116229057,-8.800000131130219 c0.5000000074505807,0 3.6000000536441807,1.600000023841858 6.800000101327896,3.6000000536441807 zm23.900000356137753,12.800000190734863 c0,2.1000000312924385 -4.6000000685453415,11.60000017285347 -5.600000083446503,11.60000017285347 c-1.0000000149011612,0 -12.400000184774399,-6.000000089406967 -14.300000213086605,-7.600000113248825 c-0.20000000298023224,-0.20000000298023224 1.600000023841858,-2.500000037252903 3.9000000581145287,-5.300000078976154 l4.200000062584877,-5.000000074505806 l5.900000087916851,3.0000000447034836 c3.300000049173832,1.600000023841858 5.900000087916851,3.1000000461935997 5.900000087916851,3.300000049173832 z" id="svg_2" fill="#5a4cae" class=""/>

</g></svg>
