<svg xmlns="http://www.w3.org/2000/svg" version="1.0" width="600" height="299" preserveAspectRatio="xMidYMid meet"><rect id="backgroundrect" width="100%" height="100%" x="0" y="0" fill="none" stroke="none"/>
<metadata>
Created by potrace 1.15, written by Peter Selinger 2001-2017
</metadata>

<g class="currentLayer" style=""><title>Layer 1</title><path fill="#fcfbe3" fill-opacity="1" stroke="none" stroke-width="1" stroke-dasharray="none" stroke-linejoin="miter" stroke-linecap="butt" stroke-dashoffset="" fill-rule="nonzero" opacity="1" marker-start="" marker-mid="" marker-end="" d="M44.83333,83.83333C44.83333,49.21086 75.64227,17.83333 116.25,17.83333C156.85773,17.83333 184.75,45.46086 187.66667,80.08333C190.58333,114.7058 236.02439,144.83334 112.5,141.50001C-11.02439,138.16668 44.83333,118.4558 44.83333,83.83333z" id="svg_10" class="selected"/><g transform="translate(0,299) scale(0.10000000149011612,-0.10000000149011612) " fill="#5a4cae" stroke="none" id="svg_1" class="" fill-opacity="1">
<path d="M1030 2838 c-230 -57 -401 -169 -510 -335 -80 -122 -98 -181 -115 -372 -13 -162 -15 -169 -54 -251 -47 -96 -52 -150 -22 -216 33 -73 104 -105 163 -73 11 6 22 8 25 5 3 -3 104 -275 224 -606 140 -385 228 -613 245 -636 37 -47 91 -74 153 -74 88 0 131 27 181 115 29 50 470 1171 470 1194 0 8 17 11 53 10 77 -2 118 19 156 81 34 57 28 108 -25 208 -37 70 -44 93 -39 119 5 29 -4 126 -21 217 -9 53 -44 147 -83 225 -60 117 -157 208 -326 306 -27 16 -51 28 -53 26 -2 -1 -13 4 -25 12 -13 8 -61 24 -108 36 -89 22 -220 27 -289 9z m300 -83 c141 -43 281 -138 373 -250 88 -107 167 -297 183 -436 10 -93 -9 -90 -119 18 -84 83 -130 114 -144 99 -11 -11 33 -66 102 -126 131 -116 185 -198 187 -288 2 -94 -34 -116 -144 -87 -79 20 -95 14 -145 -52 -15 -21 -32 -41 -38 -45 -23 -17 -64 -6 -108 28 -43 34 -50 36 -89 29 -54 -9 -89 -9 -158 0 -51 7 -62 4 -118 -24 -78 -39 -114 -39 -172 -1 -44 30 -46 31 -136 24 -101 -7 -109 -3 -146 64 -23 43 -47 41 -103 -8 -80 -69 -151 -45 -162 54 -12 99 60 133 253 121 75 -5 114 -4 114 3 0 15 -75 42 -160 58 -132 25 -151 55 -132 217 29 245 104 380 271 492 90 59 216 115 291 129 53 10 246 -3 300 -19z m-557 -1208 c26 0 56 7 71 16 38 25 54 21 104 -24 43 -40 46 -41 96 -36 41 4 57 1 76 -13 l25 -19 -43 -44 -44 -45 -65 40 c-37 22 -75 49 -86 59 -20 19 -21 18 -41 -3 -20 -22 -32 -53 -16 -43 5 3 41 -19 80 -49 l70 -55 -45 -35 c-26 -19 -52 -33 -59 -30 -8 3 -12 -3 -10 -18 1 -13 3 -26 3 -30 1 -5 13 -8 28 -8 17 0 48 17 84 45 l58 45 65 -41 c36 -23 66 -43 66 -46 0 -2 -30 -38 -67 -79 -38 -41 -68 -80 -68 -86 0 -6 8 -16 17 -21 14 -9 32 3 103 72 l86 82 87 -46 c48 -26 91 -50 95 -55 8 -7 -184 -514 -231 -608 -31 -61 -63 -95 -83 -87 -8 3 -22 17 -32 30 -10 14 -104 267 -209 563 -214 602 -206 578 -190 568 18 -11 14 4 -5 28 -14 16 -12 16 9 -3 19 -17 39 -23 71 -24z m655 15 c47 -50 46 -57 -15 -111 -56 -50 -57 -51 -82 -34 -14 9 -41 26 -58 37 -18 12 -33 24 -33 29 0 22 49 78 75 86 50 15 94 12 113 -7z m-157 -168 l59 -36 -41 -49 c-22 -27 -43 -49 -46 -49 -5 0 -98 64 -118 82 -9 8 61 88 78 88 5 0 36 -16 68 -36z m239 -128 c0 -21 -46 -116 -56 -116 -10 0 -124 60 -143 76 -2 2 16 25 39 53 l42 50 59 -30 c33 -16 59 -31 59 -33z" id="svg_2" fill="#5a4cae"/>
<path d="M3840 1430 l0 -70 90 0 90 0 0 70 0 70 -90 0 -90 0 0 -70z" id="svg_3" fill="#5a4cae"/>
<path d="M4256 1368 c-3 -68 -8 -206 -11 -308 -4 -102 -13 -304 -21 -450 -7 -146 -14 -280 -14 -297 l0 -33 85 0 85 0 0 58 c0 129 31 855 46 1065 l6 87 -85 0 -85 0 -6 -122z" id="svg_4" fill="#5a4cae"/>
<path d="M4666 1368 c-3 -68 -8 -206 -11 -308 -4 -102 -13 -304 -21 -450 -7 -146 -14 -280 -14 -297 l0 -33 85 0 85 0 0 58 c0 129 31 855 46 1065 l6 87 -85 0 -85 0 -6 -122z" id="svg_5" fill="#5a4cae"/>
<path d="M1900 1179 c-52 -11 -96 -21 -97 -22 -5 -5 -21 -122 -17 -126 2 -3 35 5 72 17 106 34 150 41 255 42 107 0 147 -11 186 -54 47 -50 23 -129 -50 -167 -22 -11 -107 -37 -190 -60 -172 -45 -258 -81 -312 -129 -140 -122 -99 -348 72 -403 55 -17 243 -24 323 -11 34 6 39 11 49 48 5 22 13 49 16 60 4 16 1 18 -23 12 -16 -4 -78 -9 -139 -12 -127 -6 -163 6 -203 66 -19 28 -23 44 -19 80 4 38 12 52 51 87 47 42 98 63 306 123 41 12 90 31 108 42 l32 20 0 -64 c0 -69 -16 -324 -25 -400 l-6 -48 84 0 84 0 14 278 c20 394 19 489 -6 530 -26 43 -82 79 -152 97 -84 22 -293 19 -413 -6z" id="svg_6" fill="#5a4cae"/>
<path d="M3104 1189 c-59 -14 -143 -68 -180 -116 l-32 -42 5 74 6 75 -85 0 -85 0 -6 -242 c-4 -134 -14 -333 -22 -443 -8 -110 -15 -203 -15 -207 0 -5 38 -8 85 -8 l85 0 0 58 c1 111 20 406 31 466 22 121 94 217 192 253 41 15 160 16 210 2 52 -14 111 -69 125 -117 18 -58 13 -253 -13 -589 l-6 -73 84 0 83 0 14 313 c7 173 11 342 7 375 -14 158 -125 233 -340 231 -56 -1 -120 -5 -143 -10z" id="svg_7" fill="#5a4cae"/>
<path d="M5200 1179 c-52 -11 -96 -21 -97 -22 -5 -5 -21 -122 -17 -126 2 -3 35 5 72 17 106 34 150 41 255 42 107 0 147 -11 186 -54 47 -50 23 -129 -50 -167 -22 -11 -107 -37 -190 -60 -172 -45 -258 -81 -312 -129 -140 -122 -99 -348 72 -403 55 -17 243 -24 323 -11 34 6 39 11 49 48 5 22 13 49 16 60 4 16 1 18 -23 12 -16 -4 -78 -9 -139 -12 -127 -6 -163 6 -203 66 -19 28 -23 44 -19 80 4 38 12 52 51 87 47 42 98 63 306 123 41 12 90 31 108 42 l32 20 0 -64 c0 -69 -16 -324 -25 -400 l-6 -48 84 0 84 0 14 278 c20 394 19 489 -6 530 -26 43 -82 79 -152 97 -84 22 -293 19 -413 -6z" id="svg_8" fill="#5a4cae"/>
<path d="M3836 1013 c-14 -344 -27 -610 -33 -671 l-6 -62 85 0 c80 0 86 1 92 23 3 12 6 94 6 182 0 151 11 412 26 608 l6 87 -85 0 -85 0 -6 -167z" id="svg_9" fill="#5a4cae"/>
</g></g></svg>